<svg xmlns="http://www.w3.org/2000/svg" viewBox="0 0 16 16" width="16" height="16">
	<style>
		tspan { white-space:pre }
		.shp0 { opacity: 0.996;fill: #464344 } 
	</style>
	<path id="Layer" class="shp0" d="M7.99 3C7.92 3 7.86 3.01 7.79 3.02C7.73 3.04 7.67 3.05 7.61 3.08C7.55 3.1 7.5 3.14 7.44 3.17C7.39 3.21 7.34 3.25 7.29 3.29L3.29 7.29C3.2 7.39 3.13 7.5 3.08 7.62C3.03 7.74 3 7.87 3 8C3 8.13 3.03 8.26 3.08 8.38C3.13 8.5 3.2 8.61 3.29 8.71L7.29 12.71C7.39 12.8 7.5 12.87 7.62 12.92C7.74 12.97 7.87 13 8 13C8.13 13 8.26 12.97 8.38 12.92C8.5 12.87 8.61 12.8 8.71 12.71C8.8 12.61 8.87 12.5 8.92 12.38C8.97 12.26 9 12.13 9 12C9 11.87 8.97 11.74 8.92 11.62C8.87 11.5 8.8 11.39 8.71 11.29L6.41 9L11 9C11.13 9 11.26 8.97 11.38 8.92C11.5 8.87 11.61 8.8 11.71 8.71C11.8 8.61 11.87 8.5 11.92 8.38C11.97 8.26 12 8.13 12 8C12 7.87 11.97 7.74 11.92 7.62C11.87 7.5 11.8 7.39 11.71 7.29C11.61 7.2 11.5 7.13 11.38 7.08C11.26 7.03 11.13 7 11 7L6.41 7L8.71 4.71C8.8 4.61 8.87 4.5 8.92 4.38C8.97 4.26 9 4.13 9 4C9 3.87 8.97 3.74 8.92 3.62C8.87 3.5 8.8 3.39 8.71 3.29C8.66 3.25 8.61 3.2 8.55 3.17C8.5 3.13 8.44 3.1 8.38 3.07C8.31 3.05 8.25 3.03 8.18 3.02C8.12 3.01 8.05 3 7.99 3L7.99 3Z" />
</svg>